<svg width="24" height="24" viewBox="0 0 24 24" fill="none" xmlns="http://www.w3.org/2000/svg">
<path fill-rule="evenodd" clip-rule="evenodd" d="M8 3C6.34315 3 5 4.34315 5 6V18.9966C5 20.171 5.96223 20.997 7 21C7.37381 21.0011 7.75743 20.8954 8.1094 20.6607L12 18.067L15.8906 20.6607C16.2426 20.8954 16.6262 21.0011 17 21C18.0378 20.997 19 20.171 19 18.9966V6C19 4.34315 17.6569 3 16 3H8ZM7 6C7 5.44772 7.44772 5 8 5H16C16.5523 5 17 5.44772 17 6V18.9966L12.5547 16.0331C12.2188 15.8092 11.7812 15.8092 11.4453 16.0331L7 18.9966V6Z" fill="black"/>
</svg>
