<svg width="24" height="24" viewBox="0 0 24 24" fill="none" xmlns="http://www.w3.org/2000/svg">
<path d="M5.25628 18.7437C5.59799 19.0854 6.15201 19.0854 6.49372 18.7437L12 13.2374L17.5063 18.7437C17.848 19.0854 18.402 19.0854 18.7437 18.7437C19.0854 18.402 19.0854 17.848 18.7437 17.5063L13.2374 12L18.7437 6.49372C19.0854 6.15201 19.0854 5.59799 18.7437 5.25628C18.402 4.91457 17.848 4.91457 17.5063 5.25628L12 10.7626L6.49372 5.25628C6.15201 4.91457 5.59799 4.91457 5.25628 5.25628C4.91457 5.59799 4.91457 6.15201 5.25628 6.49372L10.7626 12L5.25628 17.5063C4.91457 17.848 4.91457 18.402 5.25628 18.7437Z" fill="black"/>
</svg>
