<svg width="24" height="24" viewBox="0 0 24 24" fill="none" xmlns="http://www.w3.org/2000/svg">
<path d="M16.2785 17.7046C16.6723 18.0985 17.3108 18.0985 17.7046 17.7046C18.0985 17.3108 18.0985 16.6723 17.7046 16.2785L13.4262 12L17.7046 7.72153C18.0985 7.3277 18.0985 6.68919 17.7046 6.29537C17.3108 5.90154 16.6723 5.90154 16.2785 6.29537L12 10.5738L7.72153 6.29537C7.3277 5.90154 6.68919 5.90154 6.29537 6.29537C5.90154 6.68919 5.90154 7.3277 6.29537 7.72153L10.5738 12L6.29537 16.2785C5.90154 16.6723 5.90154 17.3108 6.29537 17.7046C6.68919 18.0985 7.3277 18.0985 7.72153 17.7046L12 13.4262L16.2785 17.7046Z" fill="#212121"/>
</svg>
