<svg width="24" height="24" viewBox="0 0 24 24" fill="none" xmlns="http://www.w3.org/2000/svg">
<path d="M17.2071 16.2071C17.5976 15.8166 17.5976 15.1834 17.2071 14.7929C16.8166 14.4024 16.1834 14.4024 15.7929 14.7929L12 18.5858L10.7071 17.2929C10.3166 16.9024 9.68342 16.9024 9.29289 17.2929C8.90237 17.6834 8.90237 18.3166 9.29289 18.7071L10.5858 20C11.3668 20.7811 12.6332 20.7811 13.4142 20L17.2071 16.2071Z" fill="black"/>
<path d="M4 8.79564C4 6.68444 5.69898 5 7.95 5C9.22528 5 10.4573 5.58023 11.2515 6.47673C11.4413 6.69098 11.7138 6.81362 12 6.81362C12.2862 6.81362 12.5587 6.69098 12.7485 6.47673C13.5427 5.58023 14.7747 5 16.05 5C18.301 5 20 6.68444 20 8.79564C20 9.52949 19.9122 10.0045 19.6961 10.4635C19.4673 10.9494 19.0592 11.4932 18.2804 12.3003C17.8969 12.6978 17.9082 13.3308 18.3056 13.7143C18.7031 14.0978 19.3361 14.0865 19.7196 13.6891C20.5431 12.8356 21.1349 12.1026 21.5056 11.3155C21.8889 10.5015 22 9.70728 22 8.79564C22 5.51828 19.343 3 16.05 3C14.5554 3 13.1144 3.53932 12 4.43729C10.8856 3.53932 9.44462 3 7.95 3C4.65702 3 2 5.51828 2 8.79564C2 11.7316 4.04782 14.1276 6.81684 16.7181C7.22015 17.0954 7.85297 17.0743 8.23027 16.6709C8.60757 16.2676 8.58648 15.6348 8.18316 15.2575C5.36433 12.6205 4 10.7687 4 8.79564Z" fill="black"/>
</svg>
