<svg width="24" height="24" viewBox="0 0 24 24" fill="none" xmlns="http://www.w3.org/2000/svg">
<path fill-rule="evenodd" clip-rule="evenodd" d="M12 3C11.4477 3 11 3.44772 11 4V5H9C7.34315 5 6 6.34315 6 8V9C6 9.80612 6.3891 10.8343 7.35982 11.6432C8.17909 12.3259 9.36485 12.8171 11 12.9584V17H9C8.44772 17 8 16.5523 8 16V15C8 14.4477 7.55228 14 7 14C6.44772 14 6 14.4477 6 15V16C6 17.6569 7.34315 19 9 19H11V20C11 20.5523 11.4477 21 12 21C12.5523 21 13 20.5523 13 20V19H15C16.6569 19 18 17.6569 18 16V15C18 14.1939 17.6109 13.1657 16.6402 12.3568C15.8209 11.6741 14.6352 11.1829 13 11.0416V7H15C15.5523 7 16 7.44772 16 8V9C16 9.55228 16.4477 10 17 10C17.5523 10 18 9.55228 18 9V8C18 6.34315 16.6569 5 15 5H13V4C13 3.44772 12.5523 3 12 3ZM11 7H9C8.44772 7 8 7.44772 8 8V9C8 9.19388 8.1109 9.66571 8.64018 10.1068C9.05853 10.4554 9.78361 10.8187 11 10.9494V7ZM13 13.0506V17H15C15.5523 17 16 16.5523 16 16V15C16 14.8061 15.8891 14.3343 15.3598 13.8932C14.9415 13.5446 14.2164 13.1813 13 13.0506Z" fill="black"/>
</svg>
