<svg width="24" height="24" viewBox="0 0 24 24" fill="none" xmlns="http://www.w3.org/2000/svg">
<path fill-rule="evenodd" clip-rule="evenodd" d="M5 4C3.34315 4 2 5.34315 2 7V17C2 18.6569 3.34315 20 5 20H19C20.6569 20 22 18.6569 22 17V7C22 5.34315 20.6569 4 19 4H5ZM4 7C4 6.44772 4.44772 6 5 6H19C19.5523 6 20 6.44772 20 7V7.35013L12.4061 10.7252C12.1476 10.8401 11.8524 10.8401 11.5939 10.7252L4 7.35013V7ZM13.2184 12.5528L20 9.53876V17C20 17.5523 19.5523 18 19 18H5C4.44772 18 4 17.5523 4 17V9.53876L10.7816 12.5528C11.5573 12.8976 12.4427 12.8976 13.2184 12.5528Z" fill="black"/>
</svg>
