<svg width="24" height="24" viewBox="0 0 24 24" fill="none" xmlns="http://www.w3.org/2000/svg">
<path d="M10.7071 6.70711C11.0976 6.31658 11.0976 5.68342 10.7071 5.29289C10.3166 4.90237 9.68342 4.90237 9.29289 5.29289L6 8.58579L4.70711 7.29289C4.31658 6.90237 3.68342 6.90237 3.29289 7.29289C2.90237 7.68342 2.90237 8.31658 3.29289 8.70711L5.29289 10.7071C5.68342 11.0976 6.31658 11.0976 6.70711 10.7071L10.7071 6.70711Z" fill="black"/>
<path d="M10.7071 14.7071C11.0976 14.3166 11.0976 13.6834 10.7071 13.2929C10.3166 12.9024 9.68342 12.9024 9.29289 13.2929L6 16.5858L4.70711 15.2929C4.31658 14.9024 3.68342 14.9024 3.29289 15.2929C2.90237 15.6834 2.90237 16.3166 3.29289 16.7071L5.29289 18.7071C5.68342 19.0976 6.31658 19.0976 6.70711 18.7071L10.7071 14.7071Z" fill="black"/>
<rect x="13" y="7" width="8" height="2" rx="1" fill="black"/>
<rect x="13" y="15" width="8" height="2" rx="1" fill="black"/>
</svg>
