<svg width="24" height="24" viewBox="0 0 24 24" fill="none" xmlns="http://www.w3.org/2000/svg">
<path d="M12 2C6.47801 2 2 6.47801 2 12C2 17.522 6.47801 22 12 22C17.522 22 22 17.522 22 12C22 6.47801 17.522 2 12 2ZM17.0168 9.65129V11.0053C16.3783 11.0055 15.758 10.8804 15.1729 10.6336C14.7967 10.4748 14.4462 10.2701 14.1256 10.0228L14.1352 14.1905C14.1312 15.129 13.7599 16.0107 13.0879 16.6749C12.541 17.2155 11.848 17.5593 11.097 17.6706C10.9205 17.6968 10.7409 17.7102 10.5592 17.7102C9.7552 17.7102 8.99187 17.4497 8.36746 16.9691C8.24996 16.8787 8.13758 16.7806 8.03059 16.6749C7.3023 15.9551 6.92676 14.9796 6.99 13.9533C7.03824 13.1721 7.35102 12.427 7.87242 11.8431C8.56227 11.0704 9.52734 10.6414 10.5592 10.6414C10.7409 10.6414 10.9205 10.6551 11.097 10.6812V11.1818V12.5745C10.9296 12.5193 10.7509 12.4889 10.5648 12.4889C9.62207 12.4889 8.85938 13.2581 8.87348 14.2015C8.88242 14.8052 9.21215 15.3328 9.69848 15.6237C9.92703 15.7604 10.19 15.8451 10.4705 15.8605C10.6904 15.8725 10.9015 15.8419 11.097 15.7774C11.7705 15.5549 12.2564 14.9222 12.2564 14.1761L12.2586 11.3852V6.28984H14.1233C14.1251 6.47461 14.1439 6.65488 14.1787 6.82957C14.3195 7.53664 14.718 8.15008 15.2727 8.56828C15.7564 8.93309 16.3586 9.14934 17.0114 9.14934C17.0118 9.14934 17.0172 9.14934 17.0168 9.14891V9.65129H17.0168Z" fill="#212121"/>
</svg>
